Coordinates
version=1
nRows=17
nColumns=38
inDegrees=no

Units are S.I. units (second, meters, Newtons, ...)
If the header above contains a line with 'inDegrees', this indicates whether rotational values are in degrees (yes) or radians (no).

endheader
time	pelvis_tilt	pelvis_list	pelvis_rotation	pelvis_tx	pelvis_ty	pelvis_tz	hip_flexion_r	hip_adduction_r	hip_rotation_r	knee_angle_r	ankle_angle_r	subtalar_angle_r	mtp_angle_r	hip_flexion_l	hip_adduction_l	hip_rotation_l	knee_angle_l	ankle_angle_l	subtalar_angle_l	mtp_angle_l	lumbar_extension	lumbar_bending	lumbar_rotation	arm_flex_r	arm_add_r	arm_rot_r	elbow_flex_r	pro_sup_r	wrist_flex_r	wrist_dev_r	arm_flex_l	arm_add_l	arm_rot_l	elbow_flex_l	pro_sup_l	wrist_flex_l	wrist_dev_l
2.43	-0.898393	1.42623	-0.598708	0.701645	-0.258987	0.938312	0.168388	0.102001	-0.0978171	0.36757	-0.272488	0	0	-0.185658	-0.288526	-0.219147	0.986207	-0.370524	0	0	-0.149235	0.181868	0.0199998	-0.191623	-0.317227	0.1167	0.827488	1.5708	0	0	0.0414249	-0.221458	0.390823	0.707466	1.5708	0	0
2.44	-0.900911	1.42168	-0.599556	0.699448	-0.268912	0.939104	0.151526	0.11039	-0.0977179	0.36265	-0.264798	0	0	-0.159408	-0.30174	-0.217619	1.04909	-0.374732	0	0	-0.151762	0.185158	0.0278333	-0.194697	-0.321825	0.115882	0.8381	1.5708	0	0	0.0354599	-0.222664	0.393191	0.707933	1.5708	0	0
2.45	-0.890604	1.41751	-0.612278	0.697346	-0.278579	0.940191	0.132747	0.117036	-0.0976977	0.355591	-0.258914	0	0	-0.13427	-0.311826	-0.213297	1.10794	-0.377353	0	0	-0.155974	0.186842	0.0345839	-0.195279	-0.325388	0.114747	0.845853	1.5708	0	0	0.0305336	-0.224234	0.395596	0.707865	1.5708	0	0
2.46	-0.870973	1.41343	-0.632896	0.695321	-0.288117	0.941535	0.111958	0.122401	-0.0989593	0.346173	-0.255208	0	0	-0.110133	-0.320211	-0.208456	1.1621	-0.373604	0	0	-0.161014	0.187143	0.0397124	-0.193738	-0.327883	0.113829	0.850445	1.5708	0	0	0.0259523	-0.226419	0.397773	0.70778	1.5708	0	0
2.47	-0.839921	1.40914	-0.663793	0.69336	-0.297542	0.943134	0.0885201	0.126668	-0.0988038	0.334603	-0.252959	0	0	-0.0884112	-0.32594	-0.202245	1.20985	-0.359871	0	0	-0.167511	0.186052	0.0435688	-0.190502	-0.329583	0.113052	0.852857	1.5708	0	0	0.0215447	-0.229022	0.399395	0.707933	1.5708	0	0
2.48	-0.802237	1.40451	-0.700882	0.691486	-0.306865	0.944818	0.063267	0.13009	-0.0989503	0.321768	-0.251692	0	0	-0.0684136	-0.332006	-0.200671	1.25271	-0.337759	0	0	-0.17481	0.184048	0.046987	-0.186466	-0.33153	0.112928	0.854534	1.5708	0	0	0.0169245	-0.232011	0.40091	0.708946	1.5708	0	0
2.49	-0.768212	1.40224	-0.734391	0.689658	-0.31592	0.946424	0.0408375	0.131542	-0.0985757	0.310409	-0.250565	0	0	-0.046223	-0.331638	-0.192725	1.29037	-0.313337	0	0	-0.180067	0.180069	0.0494668	-0.180391	-0.333213	0.114195	0.853796	1.5708	0	0	0.0123429	-0.235235	0.402086	0.709599	1.5708	0	0
2.5	-0.736434	1.40361	-0.764931	0.687967	-0.324591	0.948017	0.0225688	0.129985	-0.098795	0.300774	-0.249426	0	0	-0.0207463	-0.316452	-0.163929	1.32141	-0.284043	0	0	-0.182839	0.173175	0.0483483	-0.170105	-0.334026	0.11832	0.84896	1.5708	0	0	0.00716119	-0.239194	0.400593	0.710903	1.5708	0	0
2.51	-0.705963	1.4063	-0.794191	0.686405	-0.333178	0.949482	0.00608262	0.127334	-0.10051	0.292248	-0.247744	0	0	0.00582308	-0.299151	-0.135591	1.34733	-0.26228	0	0	-0.184363	0.16557	0.0456696	-0.158869	-0.334818	0.122605	0.8442	1.5708	0	0	0.000455133	-0.243208	0.396539	0.713717	1.5708	0	0
2.52	-0.679022	1.40912	-0.821511	0.684839	-0.342009	0.950758	-0.0100283	0.12497	-0.102882	0.283625	-0.245745	0	0	0.0317468	-0.287646	-0.121135	1.36833	-0.249585	0	0	-0.184864	0.1584	0.0446546	-0.149447	-0.336497	0.126438	0.841689	1.5708	0	0	-0.00737787	-0.247006	0.3923	0.717578	1.5708	0	0
2.53	-0.651188	1.41235	-0.851486	0.683174	-0.350803	0.951927	-0.0253918	0.122123	-0.104546	0.275501	-0.243749	0	0	0.0566521	-0.277533	-0.113314	1.38375	-0.239895	0	0	-0.184984	0.150661	0.0454753	-0.140638	-0.338437	0.130045	0.840209	1.5708	0	0	-0.0151645	-0.250606	0.388716	0.721448	1.5708	0	0
2.54	-0.615088	1.41503	-0.892743	0.681265	-0.359208	0.953066	-0.0407965	0.118408	-0.101994	0.268964	-0.24117	0	0	0.0789351	-0.267618	-0.111029	1.3938	-0.230503	0	0	-0.187554	0.141795	0.0486369	-0.130852	-0.340181	0.132902	0.840224	1.5708	0	0	-0.0227148	-0.254585	0.384327	0.72706	1.5708	0	0
2.55	-0.578164	1.41732	-0.934512	0.679465	-0.367668	0.954165	-0.0566376	0.114484	-0.100502	0.261863	-0.238833	0	0	0.0999588	-0.258517	-0.111434	1.39849	-0.222045	0	0	-0.190136	0.133201	0.0516815	-0.121526	-0.341773	0.134569	0.841246	1.5708	0	0	-0.029926	-0.25833	0.380293	0.732387	1.5708	0	0
2.56	-0.540104	1.41947	-0.977311	0.677753	-0.376386	0.955223	-0.0735411	0.110267	-0.100137	0.252466	-0.236879	0	0	0.11921	-0.250342	-0.115806	1.39767	-0.212472	0	0	-0.192248	0.12438	0.0538191	-0.112388	-0.34229	0.135271	0.842158	1.5708	0	0	-0.0383307	-0.262239	0.375542	0.738454	1.5708	0	0
2.57	-0.500182	1.42158	-1.02278	0.67604	-0.385287	0.956199	-0.090847	0.105588	-0.0996339	0.242352	-0.235694	0	0	0.136772	-0.242857	-0.124146	1.39186	-0.203858	0	0	-0.193874	0.11528	0.0566331	-0.104098	-0.342122	0.134818	0.843641	1.5708	0	0	-0.0467711	-0.265888	0.371217	0.743858	1.5708	0	0
2.58	-0.459387	1.42261	-1.06721	0.674588	-0.394015	0.957056	-0.108832	0.10118	-0.101343	0.232149	-0.234813	0	0	0.153738	-0.235513	-0.131638	1.38247	-0.196683	0	0	-0.196423	0.107201	0.0587356	-0.0968837	-0.341905	0.132586	0.847102	1.5708	0	0	-0.0533295	-0.269419	0.36898	0.74875	1.5708	0	0
2.59	-0.415244	1.42149	-1.11428	0.673282	-0.402533	0.957874	-0.128835	0.0971887	-0.103525	0.221293	-0.234268	0	0	0.167856	-0.22866	-0.140387	1.36857	-0.188897	0	0	-0.201686	0.0998591	0.0607969	-0.0901453	-0.341686	0.128793	0.85275	1.5708	0	0	-0.0588313	-0.273072	0.367409	0.754386	1.5708	0	0
